<?xml version="1.0" encoding="UTF-8"?>
<!DOCTYPE svg PUBLIC "-//W3C//DTD SVG 1.1//EN" "http://www.w3.org/Graphics/SVG/1.1/DTD/svg11.dtd">
<!-- Creator: CorelDRAW 2019 (64 Bit) -->
<svg xmlns="http://www.w3.org/2000/svg" xml:space="preserve" width="91.4398mm" height="91.4398mm" version="1.1" style="shape-rendering:geometricPrecision; text-rendering:geometricPrecision; image-rendering:optimizeQuality; fill-rule:evenodd; clip-rule:evenodd"
viewBox="0 0 9143.98 9143.98"
 xmlns:xlink="http://www.w3.org/1999/xlink"
 xmlns:xodm="http://www.corel.com/coreldraw/odm/2003">
 <defs>
  <style type="text/css">
   <![CDATA[
    .fil0 {fill:#F2CB3F;fill-rule:nonzero}
   ]]>
  </style>
 </defs>
 <g id="Camada_x0020_1">
  <metadata id="CorelCorpID_0Corel-Layer"/>
  <path class="fil0" d="M3877.43 5435.27l0 1310.3 -928.8 0 0 -1310.3 928.8 0zm-2017.24 -235.61l0 -928.8 2017.24 0 1058.89 0 1104.1 0c232.66,0 331.08,-235.61 322.39,-471.36 -8.69,-236.01 -125.29,-472.29 -322.39,-472.29l-2162.99 0 0 708.04 -928.8 0 0 -1636.84 3091.79 0c788.12,0 1214.81,675.81 1241.95,1363.65 28.22,712.18 -372,1437.6 -1241.95,1437.6l-1058.9 0 -1104.09 0 -2017.24 0z"/>
 </g>
</svg>
